<svg width="41" height="40" viewBox="0 0 41 40" fill="none" xmlns="http://www.w3.org/2000/svg">
<path d="M20.9269 18.1456V18.6456L21.4268 18.6456C22.0906 18.6457 22.738 18.8514 23.28 19.2346C23.8219 19.6178 24.2318 20.1596 24.4531 20.7854C24.4717 20.8382 24.4798 20.8942 24.4768 20.9502C24.4738 21.0062 24.4598 21.0611 24.4356 21.1117C24.4114 21.1624 24.3775 21.2077 24.3357 21.2452C24.294 21.2828 24.2453 21.3117 24.1924 21.3304C24.1395 21.3491 24.0834 21.3571 24.0273 21.3542C23.9713 21.3512 23.9164 21.3372 23.8658 21.313C23.7635 21.2641 23.6849 21.1766 23.6471 21.0697L23.647 21.0695C23.4847 20.6104 23.1839 20.213 22.7863 19.9319C22.3887 19.6509 21.9137 19.5 21.4267 19.5002L20.9269 19.5003V20.0002V23.7092V24.2092H21.4269C22.2779 24.2092 23.0942 24.5473 23.696 25.1491C24.2978 25.7509 24.6359 26.5672 24.6359 27.4183C24.6359 28.2694 24.2978 29.0856 23.696 29.6874C23.0942 30.2892 22.2779 30.6273 21.4269 30.6273H20.9269V31.1273V31.5546H20.0723V31.1273V30.6273L19.5723 30.6273C18.9086 30.6273 18.2612 30.4215 17.7192 30.0383C17.1772 29.6551 16.7674 29.1134 16.5461 28.4876L16.5463 28.4875L16.5412 28.4744C16.5207 28.4211 16.511 28.3642 16.5128 28.3071C16.5146 28.25 16.5279 28.1939 16.5518 28.142C16.5757 28.0901 16.6098 28.0435 16.652 28.005C16.6942 27.9665 16.7437 27.9369 16.7975 27.9179C16.8514 27.8988 16.9085 27.8908 16.9656 27.8942C17.0226 27.8977 17.0784 27.9125 17.1295 27.9379C17.1807 27.9632 17.2263 27.9986 17.2636 28.0419C17.3009 28.0852 17.3291 28.1355 17.3466 28.1899L17.3489 28.1969L17.3514 28.2039C17.6759 29.1186 18.5474 29.7728 19.5723 29.7728H20.0723V29.2728V25.5637V25.0637H19.5723C18.7212 25.0637 17.905 24.7256 17.3032 24.1238C16.7014 23.522 16.3633 22.7058 16.3633 21.8547C16.3633 21.0036 16.7014 20.1874 17.3032 19.5856C17.905 18.9837 18.7212 18.6456 19.5723 18.6456H20.0723V18.1456V17.7184H20.9269V18.1456ZM20.0723 20.0002V19.5002H19.5723C18.9479 19.5002 18.349 19.7482 17.9074 20.1898C17.4659 20.6314 17.2178 21.2302 17.2178 21.8547C17.2178 22.4792 17.4659 23.078 17.9074 23.5196C18.349 23.9612 18.9479 24.2092 19.5723 24.2092H20.0723V23.7092V20.0002ZM20.9269 29.2728V29.7728H21.4269C22.0513 29.7728 22.6502 29.5247 23.0918 29.0832C23.5333 28.6416 23.7814 28.0427 23.7814 27.4183C23.7814 26.7938 23.5333 26.1949 23.0918 25.7534C22.6502 25.3118 22.0513 25.0637 21.4269 25.0637H20.9269V25.5637V29.2728Z" fill="#FAFAFA" stroke="#FAFAFA"/>
<path d="M27.7695 12.5772L28.0001 12.8203C29.8981 14.8211 31.4858 17.0948 32.7105 19.5658L32.7115 19.5677C33.9873 22.1703 34.7037 24.8133 34.5867 27.1301L34.5867 27.1301C34.4723 29.3912 33.5716 31.3572 31.5218 32.806L31.5218 32.806C29.4129 34.296 25.9467 35.3336 20.5354 35.3336C15.1198 35.3336 11.6397 34.3141 9.51316 32.8421L9.51293 32.842C7.44943 31.412 6.53763 29.472 6.41014 27.2374L27.7695 12.5772ZM27.7695 12.5772L27.457 12.698M27.7695 12.5772L27.457 12.698M27.457 12.698C23.1083 14.3797 17.8707 14.3798 13.5219 12.6998L13.3417 13.1662L12.9752 12.8262C11.1573 14.7856 9.46566 17.1897 8.25095 19.6929L8.25091 19.6929M27.457 12.698L8.25091 19.6929M8.25091 19.6929C6.98037 22.3123 6.2784 24.9432 6.41013 27.2372L8.25091 19.6929ZM30.3428 6.18139C30.7832 6.39923 31.1642 6.60759 31.4775 6.79428L28.3457 11.3725L28.114 11.7111L28.4009 12.0044C30.3394 13.9861 32.1697 16.5164 33.4805 19.1919C34.7935 21.8721 35.5679 24.6624 35.441 27.1735C35.3151 29.6637 34.3054 31.8863 32.0163 33.5035C29.7051 35.1363 26.0382 36.1881 20.5364 36.1881C15.0332 36.1881 11.3544 35.1551 9.02802 33.5441C6.72448 31.9489 5.6991 29.7543 5.55803 27.2856C5.41571 24.7951 6.17576 22.0153 7.48354 19.3201C8.7889 16.6299 10.6229 14.0598 12.5812 11.9993L12.8589 11.7071L12.6323 11.3738L9.52247 6.79791C9.67984 6.70521 9.8536 6.60746 10.043 6.50656L10.043 6.50656L10.0447 6.50564C10.2353 6.40316 10.4408 6.29767 10.6614 6.19013L10.8573 6.09459C13.1034 5.02401 16.6645 3.80945 20.5364 3.80945C24.4385 3.80945 27.9975 5.04283 30.2165 6.12006L30.3412 6.18057C30.3417 6.18084 30.3423 6.18111 30.3428 6.18139ZM29.7117 7.86178L30.2968 7.00635L29.2631 7.08078C26.6696 7.26751 23.6003 7.87479 20.6554 8.7274C18.6714 9.30056 16.4387 9.21929 14.3339 8.83106C13.8046 8.73294 13.279 8.61613 12.758 8.48086L11.4726 8.14712L12.2188 9.24574L13.9991 11.8671L14.091 12.0024L14.245 12.0572C18.1692 13.4543 22.7996 13.4542 26.7245 12.0592L26.5571 11.588L26.9698 11.8703L29.7117 7.86178ZM14.4877 7.99046L14.4881 7.99055C16.523 8.36535 18.6079 8.42979 20.4168 7.90582L20.4175 7.90561C22.3859 7.33216 24.388 6.88116 26.4122 6.5552L26.4768 5.58279C24.7353 5.05845 22.6905 4.66397 20.5354 4.66397C17.2536 4.66397 14.2063 5.57787 12.08 6.48035L10.8004 7.02347L12.1328 7.41985C12.8897 7.64501 13.6821 7.84132 14.4877 7.99046Z" fill="#FAFAFA" stroke="#FAFAFA"/>
</svg>
